<svg xmlns="http://www.w3.org/2000/svg" width="10.88" height="8.641" viewBox="0 0 10.88 8.641"><defs><style>.a,.b{fill:#fb41c6;}.b{fill-rule:evenodd;}</style></defs><path class="a" d="M17.264,11.567a9.293,9.293,0,0,0,1.8-2.2s-2.04-3.74-5.44-3.74a4.779,4.779,0,0,0-1.9.4l.523.524A4.042,4.042,0,0,1,13.62,6.3a5.071,5.071,0,0,1,3.514,1.671,8.931,8.931,0,0,1,1.129,1.389c-.04.059-.083.125-.133.2a8.971,8.971,0,0,1-1,1.193c-.112.112-.229.223-.351.33Z" transform="translate(-8.18 -5.044)"/><path class="a" d="M14.742,13.3A2.38,2.38,0,0,0,11.7,10.258l.56.56a1.7,1.7,0,0,1,1.924,1.924l.559.559Zm-2,.883.559.559A2.38,2.38,0,0,1,10.257,11.7l.56.56a1.7,1.7,0,0,0,1.924,1.924Z" transform="translate(-7.06 -8.18)"/><path class="a" d="M2.278,11.2q-.184.163-.352.331A8.931,8.931,0,0,0,.8,12.917l.133.2a8.971,8.971,0,0,0,1,1.193A5.072,5.072,0,0,0,5.44,15.977a4.028,4.028,0,0,0,1.374-.245l.523.525a4.78,4.78,0,0,1-1.9.4c-3.4,0-5.44-3.74-5.44-3.74a9.261,9.261,0,0,1,1.8-2.2l.481.482Z" transform="translate(0 -8.596)"/><path class="b" d="M11.864,12.344,3.7,4.184,4.185,3.7l8.16,8.16Z" transform="translate(-2.585 -3.703)"/></svg>