<svg xmlns="http://www.w3.org/2000/svg" width="10.879" height="7.087" viewBox="0 0 10.879 7.087"><defs><style>.a{fill:#fb41c6;}</style></defs><path class="a" d="M12.511,10.913A6.113,6.113,0,0,0,7.16,7.53a6.091,6.091,0,0,0-5.345,3.383l-.095.159.088.162A6.113,6.113,0,0,0,7.16,14.617a6.078,6.078,0,0,0,5.352-3.383l.088-.162ZM7.16,13.924a5.381,5.381,0,0,1-4.668-2.852A5.381,5.381,0,0,1,7.16,8.22a5.4,5.4,0,0,1,4.665,2.852A5.4,5.4,0,0,1,7.16,13.924Z" transform="translate(-1.72 -7.53)"/><path class="a" d="M13.584,11.17a2.321,2.321,0,1,0,1.648.67,2.321,2.321,0,0,0-1.648-.67Zm0,3.965a1.647,1.647,0,1,1,1.176-.48,1.644,1.644,0,0,1-1.176.48Z" transform="translate(-8.046 -9.939)"/></svg>