<svg xmlns="http://www.w3.org/2000/svg" width="5.153" height="11.314" viewBox="0 0 5.153 11.314"><defs><style>.a{fill:#fff;fill-rule:evenodd;}</style></defs><path class="a" d="M6.32,8.113V13.6a.11.11,0,0,0,.112.112H8.449a.11.11,0,0,0,.112-.112h0V8h1.456a.11.11,0,0,0,.112-.112l.112-1.68a.11.11,0,0,0-.112-.112H8.673V4.864a.482.482,0,0,1,.448-.448h1.12a.11.11,0,0,0,.112-.112h0V2.512a.11.11,0,0,0-.112-.112h-1.9A2.008,2.008,0,0,0,6.32,4.416h0V6.1H5.312a.11.11,0,0,0-.112.112h0v1.68A.11.11,0,0,0,5.312,8h0l1.008.112Z" transform="translate(-5.2 -2.4)"/></svg>