<svg xmlns="http://www.w3.org/2000/svg" width="16.452" height="23.07" viewBox="0 0 16.452 23.07"><defs><style>.a{fill:#fff;}.b{fill:#fb41c6;}</style></defs><g transform="translate(0.001 0)"><path class="a" d="M17.746,32.169h5.991a1.784,1.784,0,0,0,1.65-2.461L20.51,17.817a5.9,5.9,0,0,1-.442-2.24V12.434a1.718,1.718,0,0,1,.5-1.215,1.094,1.094,0,0,0,.321-.774V10H14.6v.445a1.094,1.094,0,0,0,.321.774,1.718,1.718,0,0,1,.5,1.215v3.143a5.9,5.9,0,0,1-.441,2.24l-2.252,5.49-2.626,6.4a1.784,1.784,0,0,0,1.65,2.461Zm0,0" transform="translate(-9.522 -9.549)"/><path class="a" d="M10.1,264.623a1.784,1.784,0,0,0,1.65,2.461H23.738a1.784,1.784,0,0,0,1.65-2.461L21.85,256H13.643Zm0,0" transform="translate(-9.522 -244.465)"/><path class="b" d="M16.283,19.987,11.4,8.1A5.426,5.426,0,0,1,11,6.028V2.885a1.259,1.259,0,0,1,.371-.9A1.535,1.535,0,0,0,11.821.9V.451A.451.451,0,0,0,11.37,0H5.079a.451.451,0,0,0-.451.451V.9a1.535,1.535,0,0,0,.453,1.093,1.259,1.259,0,0,1,.371.9V6.028A5.423,5.423,0,0,1,5.045,8.1L3.7,11.364l0,0L.166,19.987A2.234,2.234,0,0,0,2.234,23.07H14.216a2.234,2.234,0,0,0,2.067-3.082ZM5.879,8.438a6.319,6.319,0,0,0,.475-2.411V2.885a2.154,2.154,0,0,0-.635-1.533A.64.64,0,0,1,5.53.9h5.39a.64.64,0,0,1-.189.45A2.155,2.155,0,0,0,10.1,2.885V6.028a6.323,6.323,0,0,0,.475,2.411l1.088,2.652H4.791Zm9.445,13.139a1.314,1.314,0,0,1-1.107.591H2.234a1.335,1.335,0,0,1-1.32-1.526h.742a.451.451,0,0,0,0-.9H1.242l.517-1.262h.76a.451.451,0,0,0,0-.9h-.39l.517-1.262h.781a.451.451,0,0,0,0-.9H3.016l.518-1.262h.8a.451.451,0,0,0,0-.9H3.9l.518-1.262h7.608l3.421,8.338A1.314,1.314,0,0,1,15.323,21.578Zm0,0" transform="translate(0)"/><path class="b" d="M293.641,438.279a.451.451,0,1,0-.834.341l0,.006a.451.451,0,1,0,.834-.341Zm0,0" transform="translate(-279.583 -418.264)"/><path class="b" d="M245.313,320.477l-1.614-3.933a.451.451,0,1,0-.834.342l1.614,3.933a.451.451,0,1,0,.834-.342Zm0,0" transform="translate(-231.892 -302.014)"/></g></svg>