<svg xmlns="http://www.w3.org/2000/svg" width="8.245" height="8.245" viewBox="0 0 8.245 8.245"><defs><style>.a{fill:#fb41c6;}</style></defs><path class="a" d="M5.669,0H2.577A2.577,2.577,0,0,0,0,2.577V5.669A2.577,2.577,0,0,0,2.577,8.245H5.669A2.577,2.577,0,0,0,8.245,5.669V2.577A2.577,2.577,0,0,0,5.669,0Zm1.8,5.669a1.806,1.806,0,0,1-1.8,1.8H2.577a1.806,1.806,0,0,1-1.8-1.8V2.577a1.806,1.806,0,0,1,1.8-1.8H5.669a1.806,1.806,0,0,1,1.8,1.8Z"/><g transform="translate(2.061 2.061)"><path class="a" d="M130.061,128a2.061,2.061,0,1,0,2.061,2.061A2.061,2.061,0,0,0,130.061,128Zm0,3.35a1.288,1.288,0,1,1,1.288-1.288A1.29,1.29,0,0,1,130.061,131.35Z" transform="translate(-128 -128)"/></g><g transform="translate(6.064 1.632)"><circle class="a" cx="0.275" cy="0.275" r="0.275"/></g></svg>