<svg xmlns="http://www.w3.org/2000/svg" width="17.733" height="17.738" viewBox="0 0 17.733 17.738"><defs><style>.a,.b{fill:#fff;}.b{fill-rule:evenodd;}</style></defs><g transform="translate(-3.833 -3.824)"><path class="a" d="M11.7,15.263a.938.938,0,1,1-.938-.938.938.938,0,0,1,.938.938Z" transform="translate(-2.243 -3.931)"/><path class="a" d="M15.263,16.2a.938.938,0,1,0-.938-.938A.938.938,0,0,0,15.263,16.2Z" transform="translate(-3.928 -3.931)"/><path class="a" d="M19.763,16.2a.938.938,0,1,0-.938-.938A.938.938,0,0,0,19.763,16.2Z" transform="translate(-5.612 -3.931)"/><path class="b" d="M16.645,6.023a7.509,7.509,0,0,1,.621,9.915c.015.012.028.026.043.039l3.982,3.982a.938.938,0,1,1-1.327,1.327L15.981,17.3l-.039-.043a7.509,7.509,0,1,1,.7-11.239ZM7.354,15.314a5.631,5.631,0,1,0,0-7.963,5.631,5.631,0,0,0,0,7.963Z" transform="translate(0 0)"/></g></svg>